<?xml version="1.0"?><svg width="331.698" height="303.825" xmlns="http://www.w3.org/2000/svg">
 <g>
  <title>Layer 1</title>
  <path d="m62.361336,288.825165c0.100338,-3.27533 3.092773,-9.433899 7.08226,-13.863983c3.989502,-4.428864 6.781265,-18.286835 7.479843,-27.148178c0.327332,-4.10936 0.966949,-8.499481 1.151321,-12.20694c9.522858,-2.562439 3.061401,-1.5905 -0.091553,-2.032288c0.040131,-1.414978 -0.200668,-6.617279 -0.859116,-9.35643c-0.475327,-1.971756 -2.168442,-6.208176 -1.614105,-8.759705c3.479034,-0.441818 3.297195,-1.85556 -1.241623,-1.342361c-0.681015,-1.878555 -1.453568,-3.678421 -2.429306,-5.594482c-2.495789,-4.911835 -1.102402,-3.562241 0.396301,-4.043976c1.499985,-0.479309 4.686813,-4.335678 0,-2.407486s-3.393753,0 -4.389572,-1.540848s-1.897537,-2.308243 -2.194778,-3.462982s0.998322,-2.120621 1.797211,-2.407501c0.797653,-0.286865 1.296799,-2.889221 -0.698563,-2.022583c-1.994125,0.867874 -2.893356,-0.773438 -3.491596,-3.27536c-0.598228,-2.500687 -2.29512,-6.633011 -3.690994,-8.273132c-1.395889,-1.640091 -4.089828,-6.071381 0.897984,-10.11293c4.987793,-4.043976 3.190582,-10.390121 2.592361,-12.223892c-0.598248,-1.834961 -1.594059,-4.430084 -2.692699,-5.584808c-1.098652,-1.153519 -2.466953,-3.44722 -1.994114,-3.760727s3.585648,2.601166 2.212337,-1.198303c5.219822,-6.451477 -2.495789,0.464798 -2.656311,0.176712c-0.294735,-0.530151 -0.583187,-0.973175 0.046406,-1.580795c0.995789,-0.961044 2.790497,-1.635254 3.889156,-3.656631c1.098637,-2.021378 2.695194,-3.656631 3.393757,-6.738327c0.698578,-3.082901 1.893799,-3.850296 2.691422,-6.257797c0.79892,-2.408714 0.500427,-3.270508 2.194794,-3.176094c1.695633,0.093193 3.190598,-1.447662 1.196487,-2.121849c0,0 -1.994125,0.105309 -1.295563,-2.689522c0.698578,-2.796036 0.598251,-3.656631 0.396317,-5.104279c-0.199417,-1.446442 -0.393814,-4.335678 0.500412,-4.143227c0.896744,0.193672 3.491608,0.386124 0.698578,-1.635254c-2.795532,-2.021378 -1.098663,-1.833763 -1.19899,-2.407494c-0.099075,-0.574951 -0.297241,-0.579788 -1.195206,-0.961075c-0.899246,-0.383698 -0.30101,-3.559792 1.794708,-1.828926c2.094452,1.732094 2.798035,1.922127 4.291733,1.828926c1.493713,-0.096832 3.588158,-1.928177 0.796387,-2.408714c-2.794266,-0.480515 -3.09024,-0.674187 -3.09024,-1.154716s-1.102417,-1.441589 -1.997879,-1.057884c-0.896744,0.383698 -1.803497,-2.402657 0.600723,-1.348396c1.093643,0.480522 1.196487,-0.190048 1.397156,-0.674202c0.199417,-0.482956 1.893784,-0.767403 2.094452,0.096832c0.199402,0.864235 0.496643,1.247917 0.698563,2.115791c0.199402,0.866653 0.995804,1.347176 1.895035,0.96347c0.897995,-0.383682 2.197296,-0.866631 1.098663,-2.11821s-0.90551,-0.193649 -1.699402,-0.771019c-0.796387,-0.57737 -0.497894,-1.154724 -0.097816,-1.827705c0.401329,-0.674202 0.006264,-1.441605 0.401329,-3.176117c0.393799,-1.734512 0.600739,-4.042747 -0.200684,-4.910606c-0.801392,-0.867874 -0.200645,-3.753487 0.995819,-3.466599s3.096527,1.922119 2.198563,1.732086c-0.899261,-0.190048 -1.699417,1.543266 -0.802689,1.831345c0.899246,0.286865 2.897133,0.86422 3.594452,0.286865s1.286774,-1.827721 0.194389,-2.889244c-1.093643,-1.06031 -0.899254,-2.888031 -0.297234,-3.65905c0.600723,-0.771042 1.498718,-0.963493 2.494522,0.096832c0.995804,1.060303 2.192276,0.76738 2.192276,1.924538s1.195221,2.120636 1.595306,0.290504c0.401321,-1.831345 0.802658,-2.792412 1.299301,-3.466614c0.49791,-0.674187 1.196472,-2.792397 2.391693,-2.792397c1.196457,0 0.600746,-0.67057 0.600746,-2.501915s1.299309,-2.883186 2.094452,-4.040329c0.796387,-1.15715 0.995796,-2.984863 1.29303,-4.23642s1.299324,-1.924553 2.495796,-2.11821c1.195221,-0.193672 1.790932,0.579781 0.595734,1.54084c-1.196487,0.96106 -1.694374,1.926964 -0.595734,3.465385s1.098648,3.562225 0.496643,4.716949c-0.600739,1.154739 -3.393761,3.852737 -1.395874,4.04277c1.997879,0.191231 1.792198,1.637672 0.796387,3.369766s-2.192276,4.042747 -1.493706,6.641495s0.704842,3.562218 1.797218,4.139587c1.09362,0.57737 0.297234,0.670563 1.196457,-0.193672c0.899254,-0.864212 1.389618,-1.538422 1.991615,0.482956c0.600746,2.021378 -0.096565,1.538422 1.498734,0.864235c1.596542,-0.674202 1.59153,-1.631638 1.695633,-2.885612c0.102844,-1.253975 1.195198,-1.54084 1.797218,-2.792397s0.600723,-1.924553 0.899223,-2.889244c0.295975,-0.963493 1.595299,-1.057892 1.893784,1.347191s0.200668,3.366127 1.596558,3.176094s1.190193,-0.767403 1.493698,-0.961052c0.302246,-0.193672 0.595734,0.190033 1.195221,0.86422c0.600761,0.674202 1.008347,1.154739 1.202744,0c0.193138,-1.154724 -0.905502,-1.732094 -1.901321,-2.406281c-0.995781,-0.674202 -1.591515,-1.250351 -1.293022,-2.69558s0.698563,-1.637672 0,-2.889229s-0.995819,-0.961075 -1.395897,-1.827728c-0.400078,-0.867851 -0.400078,-2.120628 -0.400078,-3.852722s-1.09362,-3.559792 0.102844,-3.656631c1.196472,-0.096832 1.991608,0.866661 2.192268,2.695587c0.199425,1.827705 0.795158,2.308235 0.795158,3.753464s0.303505,6.645119 1.299301,6.645119s1.591537,-1.350815 1.492462,-3.081688c-0.096558,-1.732086 -0.795135,-2.69558 -0.595734,-4.716949c0.200661,-2.021378 0.104103,-3.949554 -1.694382,-6.354637c-1.797218,-2.405075 -3.593163,-4.424019 -3.593163,-6.352211c0,-1.926964 -1.19648,-5.103073 0.400078,-7.028824s2.793007,-4.716957 4.686806,-1.924549s1.797218,1.635273 2.494522,2.308258s1.596542,1.635246 1.395882,2.7924c-0.199402,1.157158 -0.496643,2.120628 0.497902,2.504326c0.995819,0.383713 2.197304,1.154724 1.997902,-0.290504c-0.200684,-1.443993 -0.200684,-1.157127 -0.600761,-2.311867s0,-1.444019 -0.897987,-1.827717c-0.899216,-0.383701 -0.796394,-2.309452 0.801422,-1.057896c1.595306,1.251564 1.395866,1.055473 2.592361,2.115791c1.195221,1.06031 5.68763,0.100464 2.992424,-0.961063c-2.693947,-1.060314 -2.197289,-1.637665 -2.197289,-2.311878s-0.496658,-0.38612 -2.391693,-0.771011c-1.895042,-0.383709 -2.798035,-0.19368 -3.393768,-1.251575c-0.595734,-1.057896 -0.297234,-1.831345 -1.493698,-1.540848c-1.195221,0.290504 -0.199417,-1.536003 0.995804,-2.115772c1.196472,-0.5798 2.095695,-1.348412 3.892914,-0.963501c1.797226,0.383701 2.49453,-0.482937 4.389565,-0.193661c1.89505,0.289288 2.587357,0.002422 3.588165,-1.057896s2.203568,-0.96347 0.302261,-2.11821c-1.900055,-1.154728 -0.801422,-1.15715 -0.801422,-1.540848c0,-0.383701 -0.393799,-0.193661 -1.991592,0.096832s-0.704849,1.637676 -2.895889,-0.674194c-2.192276,-2.311878 -2.495766,-2.986076 -3.194344,-5.00745c-0.698555,-2.021378 -2.192276,-5.871677 0.899223,-8.086723c3.090279,-2.215042 4.383316,-3.272938 5.184723,-4.23642c0.802658,-0.96348 1.596558,-2.11821 0.200668,-2.88924s0.49791,-2.11821 2.79303,-1.347179c2.29512,0.769819 2.592361,0.386118 3.788818,0.289284c1.195221,-0.096834 1.201492,0.38612 1.000824,-1.251554c-0.199402,-1.637686 0.693558,-3.368567 4.087341,-0.19367c3.393738,3.176105 4.686798,2.021376 6.083939,2.69558s3.594421,1.536003 4.492401,2.885603c0.899231,1.350821 3.886658,1.73451 6.284622,0.482954s6.193024,-0.480536 8.881973,1.444016c2.691422,1.924541 2.884567,2.402657 3.188065,5.003811s2.100754,4.333256 6.988205,4.139595c4.88623,-0.193668 5.488251,-0.100464 7.38327,2.405079c1.893799,2.50433 4.985291,1.92696 6.484039,2.215054s3.896667,1.637665 5.591034,2.11821c1.695648,0.480518 2.592377,1.53841 3.588165,0.864216s1.798462,-0.674194 2.69519,-0.480534c0.899261,0.193668 2.391693,1.253983 1.29306,1.734528s-0.297241,1.637665 1.299286,1.348381c1.596558,-0.290504 1.89505,-0.96349 1.694397,1.15472c-0.199432,2.11821 -0.085297,1.15715 0.308502,2.50433c0.395081,1.3484 0.49292,1.635265 1.792206,3.176109c1.299316,1.540848 1.493713,1.635273 2.592377,3.369774c1.098633,1.734512 1.900024,3.753464 -0.097839,4.139587c-1.996643,0.386116 -2.293884,0.383698 -2.992432,2.11821c-0.699829,1.734512 -1.89505,2.212624 -2.794296,2.982437c-0.897934,0.771027 -0.496658,2.69558 2.495804,5.007446c2.992432,2.311882 5.088165,4.142006 6.78125,5.68045s2.094452,7.315681 2.391693,10.011261c0.297241,2.69558 0.796417,5.001404 -0.899231,6.929565c-1.452332,1.657043 -1.000824,3.807945 -0.337357,4.871895c0.109085,0.174294 0.223221,0.318336 0.337357,0.426064c-6.323486,3.48838 -1.745804,2.339714 1.002075,3.223305c0.50293,1.457321 1.586502,3.329819 1.395905,4.286049c-0.400085,2.021378 -1.797241,3.850304 -1.996643,3.850304c-1.969055,-0.006058 -1.89502,1.153519 -1.89502,2.889229c0,0.961067 -1.196503,1.827728 -1.596558,0.866653s-0.297241,-2.401436 -0.995819,-2.501907c-0.698578,-0.099258 0.303497,-0.773445 -0.698578,-0.099258s-1.89502,0.286865 -1.596527,2.696785c0.297241,2.407509 -1.797241,3.751045 -1.595306,6.544678c0.199402,2.794815 1.698151,7.218857 -2.392975,9.627563c0,0 -2.69516,0.584625 -3.59317,3.180954c-0.899231,2.597534 -2.386627,0.282013 -4.286713,1.535995c-1.901306,1.253983 -5.197266,2.215057 -5.391663,5.104279s-1.098633,2.988495 -1.196442,4.335678c-0.096558,1.347198 0.303497,5.011078 -0.595734,6.259018c-0.89798,1.24791 0.097809,4.712097 1.89502,6.637863c1.797241,1.928177 3.69104,4.535385 4.887482,4.341721c1.195221,-0.192459 4.183868,-2.021362 5.184692,-0.386108c1.002106,1.635254 1.202789,1.928177 1.699432,2.889221c0.497894,0.961075 1.488647,-0.187607 2.288818,-1.441589c0.801422,-1.252762 2.100739,-2.319138 3,-4.241257c0.897934,-1.922134 2.489471,-2.597534 3.588135,-2.789993c1.098663,-0.193665 2.792999,-3.661469 3.891663,-6.071381c1.098663,-2.407516 2.192261,-6.257813 3.194366,-6.643936c1.000824,-0.386124 1.395874,-2.789978 1.797211,-3.850296s1.092346,-0.286865 1.694366,-1.154724c0.600739,-0.866653 0.704865,-2.700424 1.901306,-2.988495c1.195221,-0.286865 2.889603,-0.087143 3.988251,-0.380081c1.099884,-0.292892 1.397125,-2.221085 1.798462,-2.31427s3.989502,0.198486 4.686813,-2.402664s10.380722,-5.197479 16.168655,3.562225c5.785461,8.759705 5.779175,9.334656 6.381195,11.549698c0.600739,2.215027 0.89798,8.953354 1.997894,11.648941c1.098663,2.696777 5.197235,10.986847 5.791718,18.591827c0.595703,7.606186 2.288849,6.733505 2.690155,9.047791s0.496643,0.674194 -0.200653,1.640106s0.607025,1.828918 1.699402,1.540833c1.093628,-0.286865 0.790131,2.695587 0.892975,3.562241c0.102844,0.866638 1.40213,2.700394 2.598633,3.467804c1.19519,0.768616 0.788849,4.910614 -0.303528,6.065338c-1.093628,1.154739 -1.087372,5.009888 -0.892975,8.086731s0.795135,8.185974 0.096588,10.013702s-0.393829,5.00502 -1.694366,5.391129s-2.488281,-0.381271 -3.090302,-1.922119c-0.600677,-1.540848 -5.295044,-2.402649 -6.088928,-1.348389c-0.796387,1.055466 -6.981934,3.176102 -4.487396,4.811356c2.495758,1.636459 0.802643,2.98848 -0.795166,4.143219s-1.997833,0.579788 -1.797211,3.757111c0.199448,3.176102 0.290985,2.982422 0.595734,4.715729c0.302261,1.734543 -1.499939,3.94957 -5.192215,6.164581s-7.582687,1.640121 -8.080612,7.319336c-0.496643,5.676788 1.849915,10.549896 -0.531738,11.698578c-2.627472,1.270935 -1.962769,2.938873 -1.962769,3.899933s-0.497894,2.988495 -1.395874,3.27536c-0.899261,0.286865 -1.493729,2.789978 -1.29306,3.176086c0.199402,0.386139 -1.596527,0.668152 -2.495773,0.767426c-0.897995,0.099243 -0.904251,-0.291718 -1.90007,2.021393c-0.995789,2.31427 -1.201477,2.402618 -1.395859,3.562195c-0.194382,1.160767 0.109116,0.96225 -0.89296,1.735718s-0.200684,0.579803 -0.200684,0.579803l-167.809532,0.094391z" fill="#000000" id="path1414"/>
 </g>

</svg>